<svg width="238" height="36" viewBox="0 0 238 36" fill="none" xmlns="http://www.w3.org/2000/svg">
<g fill="#DDDCD6">
<path d="M230.916 26.192V26.191L230.973 13.8078H236.778V6.96832H231.026L231.081 0L222.879 1.26231e-05L222.823 6.96832H218.657V13.8078H222.798L222.713 26.7768V26.7779C222.695 28.3301 222.914 29.6806 223.365 30.8341C223.819 31.9957 224.425 32.9603 225.179 33.7327C225.935 34.4877 226.806 35.0531 227.795 35.4306L227.985 35.4996C228.939 35.8331 229.933 36 230.968 36C232.546 36 233.894 35.8257 235.016 35.4819L235.017 35.4817C236.113 35.1512 237.107 34.7134 238 34.1698L236.892 29.1994C236.428 29.3548 235.964 29.4967 235.5 29.6248L235.496 29.6259L235.493 29.6265C234.935 29.7611 234.297 29.8271 233.58 29.8271C233.174 29.8271 232.809 29.7788 232.487 29.6782C232.147 29.5722 231.854 29.3712 231.608 29.084L231.605 29.0806L231.602 29.077C231.375 28.7876 231.206 28.4149 231.09 27.9692L231.089 27.9671C230.972 27.4987 230.916 26.9051 230.916 26.192Z"/>
<path d="M214.819 15.2213C215.566 17.0265 215.941 18.9606 215.941 21.0259C215.941 23.0918 215.575 25.0362 214.845 26.8607L214.845 26.8618C214.133 28.6684 213.111 30.2546 211.78 31.6222C210.468 32.97 208.882 34.0371 207.018 34.8228L207.017 34.8232C205.177 35.6065 203.122 36 200.851 36C198.562 36 196.488 35.6063 194.629 34.8228C192.784 34.0372 191.207 32.9701 189.895 31.6222C188.582 30.273 187.56 28.6954 186.829 26.8877C186.118 25.0636 185.762 23.1103 185.762 21.0259C185.762 18.9606 186.136 17.0265 186.884 15.2213C187.633 13.4134 188.673 11.8356 190.005 10.4861C191.336 9.13731 192.923 8.06977 194.769 7.28409C196.61 6.50054 198.637 6.10729 200.851 6.10729C203.066 6.10729 205.093 6.50054 206.934 7.28409L206.934 7.28452C208.799 8.07029 210.395 9.13768 211.725 10.4861C213.057 11.8352 214.088 13.4125 214.818 15.2196L214.819 15.2213ZM207.446 24.1589C207.808 23.2054 207.988 22.1602 207.988 21.0258C207.988 19.8554 207.809 18.7916 207.446 17.8373C207.085 16.8863 206.578 16.0731 205.926 15.4016C205.292 14.7306 204.534 14.2226 203.654 13.8783C202.792 13.5157 201.857 13.3447 200.851 13.3632C199.862 13.3447 198.927 13.5163 198.047 13.8789L197.887 13.9456C197.09 14.2877 196.378 14.7727 195.751 15.3995L195.749 15.4016C195.097 16.0722 194.582 16.8843 194.202 17.8339C193.82 18.7891 193.631 19.8542 193.631 21.0258C193.631 22.1435 193.821 23.1805 194.202 24.1345L194.203 24.136C194.583 25.0666 195.097 25.8768 195.747 26.5644L195.748 26.5655L195.749 26.5667C196.416 27.2529 197.18 27.7877 198.04 28.1696L198.041 28.1702C198.922 28.5529 199.859 28.7439 200.851 28.7439C201.86 28.7439 202.797 28.563 203.659 28.1988L203.661 28.198C204.541 27.8158 205.298 27.2794 205.93 26.5896C206.579 25.9017 207.084 25.0911 207.446 24.1601L207.446 24.1589Z"/>
<path d="M130.581 28.1328H126.302V35.3056H143.757V28.1328H139.145V16.7002L139.192 16.6406C140.114 15.4742 141.086 14.6594 142.11 14.2148L142.112 14.2142C143.136 13.7783 144.129 13.5664 145.091 13.5856H145.093C145.819 13.6047 146.485 13.748 147.086 14.0182C147.706 14.2701 148.242 14.6297 148.69 15.0972C149.138 15.5646 149.487 16.1272 149.737 16.7814C149.988 17.4395 150.112 18.1702 150.112 18.9705V35.3056H162.816V28.1328H158.649V17.7206C158.649 17.5045 158.64 17.2982 158.622 17.1017L158.614 17.0175L158.665 16.9502C159.584 15.7321 160.514 14.8627 161.46 14.3609C162.417 13.8445 163.434 13.5856 164.508 13.5856C166.055 13.5856 167.286 14.0649 168.169 15.0451L168.252 15.1376C169.095 16.1058 169.505 17.4105 169.505 19.0261V35.3056H182.209V28.1328H178.125V17.6095C178.125 13.9042 177.189 11.1252 175.353 9.23518C173.516 7.34496 170.876 6.38504 167.397 6.38504C166.415 6.38504 165.451 6.50314 164.505 6.73949L164.502 6.74034C163.573 6.9588 162.681 7.27733 161.825 7.69602L161.824 7.69687L161.822 7.69751C160.965 8.09871 160.153 8.5821 159.386 9.14758L159.386 9.14801C158.639 9.69464 157.965 10.3048 157.364 10.9782L157.16 11.2061L157.01 10.9401C156.142 9.40366 154.943 8.26889 153.41 7.52979L153.409 7.52915L153.408 7.52851C151.889 6.76939 150.053 6.38504 147.893 6.38504C146.345 6.38504 144.843 6.65808 143.386 7.2044C141.925 7.7522 140.611 8.49099 139.445 9.42041L139.089 9.70329V6.96831H126.358V14.1411H130.581V28.1328Z"/>
<path d="M99.3282 28.1328H95.0218V35.3056H113.366V28.1328H107.503V17.4762L107.508 17.4544C107.643 16.8003 107.876 16.2414 108.213 15.7852L108.215 15.7828L108.217 15.7805C108.569 15.3309 108.991 14.9768 109.483 14.7212L109.484 14.7205L109.486 14.7197C109.96 14.4827 110.498 14.3162 111.098 14.2178L111.219 14.199C111.862 14.086 112.567 14.03 113.334 14.03H113.553V17.0019H120.923V7.02322C119.871 7.02209 118.739 7.01341 117.526 6.99609C116.231 6.97758 114.972 6.96831 113.751 6.96831C112.569 6.96831 111.482 7.14107 110.489 7.48407C109.492 7.82807 108.598 8.31615 107.803 8.94824L107.448 9.23069V6.96831H95.0774V14.1411H99.3282V28.1328Z"/>
<path d="M84.6602 12.253C85.2748 13.6625 85.5867 15.3901 85.5867 17.4429V28.1328H89.4485V35.3056H77.8839V33.5731L77.5486 33.7838C76.9037 34.189 76.315 34.5381 75.7826 34.8317C75.2573 35.1031 74.7333 35.3199 74.2105 35.4821L74.2041 35.4842C73.6813 35.6644 73.1402 35.7906 72.5805 35.8628L72.5771 35.8632L72.5737 35.8639C72.0128 35.9543 71.3949 36 70.7193 36C69.0175 36 67.4964 35.7715 66.153 35.3182C64.8235 34.8448 63.7002 34.2099 62.7793 33.4161C61.876 32.603 61.1815 31.6561 60.6945 30.574C60.2079 29.4745 59.9638 28.2832 59.9638 26.9975C59.9638 25.6933 60.2078 24.4932 60.6938 23.3944L60.694 23.3946C61.1988 22.2952 61.9194 21.3587 62.8573 20.5834L62.859 20.5819C63.7971 19.7884 64.9468 19.1714 66.3129 18.7344L66.3146 18.734C67.6961 18.2797 69.2745 18.0505 71.0527 18.0505C72.3597 18.0505 73.5442 18.1241 74.6068 18.2706L74.6089 18.271L74.6108 18.2712C75.6976 18.4001 76.7 18.5656 77.618 18.7675L77.8839 18.8261V17.6651C77.8839 16.915 77.7394 16.2575 77.4411 15.7008C77.1464 15.1324 76.7328 14.6701 76.2026 14.3167C75.6753 13.9468 75.0461 13.6875 74.3204 13.5347C73.5993 13.3645 72.8153 13.2801 71.9695 13.2801C70.2151 13.2801 68.659 13.4571 67.3036 13.8144C66.0428 14.134 64.8243 14.5965 63.6482 15.2012L61.1646 10.184C62.99 8.95114 64.8919 8.00544 66.8704 7.34605C68.9215 6.66868 71.0931 6.32949 73.3865 6.32949C75.1666 6.32949 76.8051 6.5313 78.303 6.93306L78.306 6.93391C79.8154 7.3157 81.1002 7.9502 82.1651 8.83436L82.1668 8.83564C83.2288 9.69942 84.0605 10.8357 84.6594 12.2509L84.6602 12.253ZM77.8839 23.5846H70.9971C70.5485 23.5846 70.1094 23.6529 69.6806 23.7893C69.2519 23.9256 68.8603 24.1211 68.5073 24.3759L68.505 24.3777L68.5026 24.3796C68.1643 24.6382 67.886 24.9564 67.6683 25.3325L67.6659 25.3363L67.664 25.3402C67.4597 25.7282 67.3609 26.1716 67.3609 26.6642C67.3609 27.5752 67.6908 28.3461 68.3468 28.9622L68.3479 28.9635L68.3492 28.9646C69.0348 29.5895 70.042 29.8827 71.3305 29.8827C72.6694 29.8827 73.8919 29.6658 74.9951 29.2285C76.0861 28.7959 77.0229 28.2672 77.8023 27.6402L77.8839 27.5743V23.5846Z"/>
<path d="M4.27861 28.1328H0V35.3056H17.4547V28.1328H12.8427V16.7002L12.8899 16.6406C13.812 15.4742 14.7835 14.6594 15.8082 14.2148L15.8097 14.2142C16.8334 13.7783 17.8272 13.5664 18.7891 13.5856H18.7906C19.5169 13.6047 20.1823 13.748 20.7839 14.0182C21.404 14.2701 21.9397 14.6297 22.3879 15.0972C22.8359 15.5646 23.1842 16.1272 23.4345 16.7814C23.6861 17.4395 23.8102 18.1702 23.8102 18.9705V35.3056H36.5139V28.1328H32.3464V17.7206C32.3464 17.5045 32.3374 17.2982 32.3195 17.1017L32.3118 17.0175L32.3627 16.9502C33.2813 15.7321 34.2118 14.8627 35.1577 14.3609C36.1148 13.8445 37.1317 13.5856 38.2053 13.5856C39.7529 13.5856 40.9838 14.0649 41.8671 15.0451L41.95 15.1376C42.7931 16.1058 43.2028 17.4105 43.2028 19.0261V35.3056H55.9066V28.1328H51.8224V17.6095C51.8224 13.9042 50.887 11.1252 49.0505 9.23518C47.2138 7.34496 44.5732 6.38504 41.0947 6.38504C40.1123 6.38504 39.1484 6.50314 38.2027 6.73949L38.1999 6.74034C37.2712 6.9588 36.379 7.27733 35.5231 7.69602L35.5214 7.69687L35.5197 7.69751C34.6623 8.09871 33.8506 8.5821 33.0842 9.14758L33.0836 9.14801C32.3363 9.69464 31.6623 10.3048 31.0616 10.9782L30.8581 11.2061L30.7077 10.9401C29.8398 9.40366 28.6408 8.26889 27.108 7.52979L27.1068 7.52915L27.1053 7.52851C25.5866 6.76939 23.7511 6.38504 21.5909 6.38504C20.043 6.38504 18.541 6.65808 17.0837 7.2044C15.6224 7.7522 14.309 8.49099 13.1423 9.42041L12.7871 9.70329V6.96831H0.0555663V14.1411H4.27861V28.1328Z"/>
</g>
</svg>
